<?xml version="1.0" encoding="UTF-8" standalone="no"?>
<!-- Created with Inkscape (http://www.inkscape.org/) -->

<svg
   xmlns:dc="http://purl.org/dc/elements/1.1/"
   xmlns:cc="http://creativecommons.org/ns#"
   xmlns:rdf="http://www.w3.org/1999/02/22-rdf-syntax-ns#"
   xmlns:svg="http://www.w3.org/2000/svg"
   xmlns="http://www.w3.org/2000/svg"
   xmlns:sodipodi="http://sodipodi.sourceforge.net/DTD/sodipodi-0.dtd"
   xmlns:inkscape="http://www.inkscape.org/namespaces/inkscape"
   width="1000"
   height="1000"
   id="svg2"
   version="1.1"
   inkscape:version="0.47pre4 r22446"
   sodipodi:docname="New document 1">
  <defs
     id="defs4">
    <inkscape:perspective
       sodipodi:type="inkscape:persp3d"
       inkscape:vp_x="0 : 526.18109 : 1"
       inkscape:vp_y="0 : 1000 : 0"
       inkscape:vp_z="744.09448 : 526.18109 : 1"
       inkscape:persp3d-origin="372.04724 : 350.78739 : 1"
       id="perspective10" />
    <inkscape:perspective
       id="perspective2933"
       inkscape:persp3d-origin="0.5 : 0.33333333 : 1"
       inkscape:vp_z="1 : 0.5 : 1"
       inkscape:vp_y="0 : 1000 : 0"
       inkscape:vp_x="0 : 0.5 : 1"
       sodipodi:type="inkscape:persp3d" />
  </defs>
  <sodipodi:namedview
     id="base"
     pagecolor="#ffffff"
     bordercolor="#666666"
     borderopacity="1.0"
     inkscape:pageopacity="0.0"
     inkscape:pageshadow="2"
     inkscape:zoom="0.16"
     inkscape:cx="858.62646"
     inkscape:cy="660.08218"
     inkscape:document-units="px"
     inkscape:current-layer="layer1"
     showgrid="false"
     inkscape:window-width="533"
     inkscape:window-height="470"
     inkscape:window-x="600"
     inkscape:window-y="307"
     inkscape:window-maximized="0"
     inkscape:snap-page="true" />
  <metadata
     id="metadata7">
    <rdf:RDF>
      <cc:Work
         rdf:about="">
        <dc:format>image/svg+xml</dc:format>
        <dc:type
           rdf:resource="http://purl.org/dc/dcmitype/StillImage" />
        <dc:title></dc:title>
      </cc:Work>
    </rdf:RDF>
  </metadata>
  <g
     inkscape:label="Layer 1"
     inkscape:groupmode="layer"
     id="layer1"
     transform="translate(0,-52.362183)">
    <path
       style="fill:#000000"
       d="m 237.70493,770.26682 c -53.89525,-30.9089 -72.69904,-66.58352 -73.24914,-138.96857 -0.74123,-97.53594 20.59345,-141.95277 109.66107,-228.30436 96.32135,-93.3841 152.78175,-118.52156 291.14067,-129.62243 133.57694,-10.7172 137.29853,-4.05038 100.96517,180.86835 -14.78313,75.23872 -26.87841,157.97278 -26.87841,183.85347 0,25.88069 -8.85246,55.90825 -19.67213,66.72792 -27.92151,27.92151 -73.38129,24.36133 -85.29284,-6.67971 -8.32777,-21.7018 -21.66309,-15.91626 -75.57165,32.78689 -70.04402,63.28057 -153.47284,78.12416 -221.10274,39.33844 z M 391.06598,668.3453 c 44.9471,-23.24305 158.79255,-195.07305 176.81153,-266.86643 22.16117,-88.2971 -157.93508,-19.92962 -256.40209,97.33441 -51.23736,61.01841 -64.55969,108.55526 -43.72164,156.00792 18.64589,42.46064 58.83218,46.86802 123.3122,13.5241 z"
       id="path2960" />
  </g>
</svg>
