<?xml version="1.0" encoding="UTF-8" standalone="no"?>
<!-- Created with Inkscape (http://www.inkscape.org/) -->

<svg
   xmlns:dc="http://purl.org/dc/elements/1.1/"
   xmlns:cc="http://creativecommons.org/ns#"
   xmlns:rdf="http://www.w3.org/1999/02/22-rdf-syntax-ns#"
   xmlns:svg="http://www.w3.org/2000/svg"
   xmlns="http://www.w3.org/2000/svg"
   xmlns:sodipodi="http://sodipodi.sourceforge.net/DTD/sodipodi-0.dtd"
   xmlns:inkscape="http://www.inkscape.org/namespaces/inkscape"
   width="1000"
   height="1000"
   id="svg2"
   version="1.1"
   inkscape:version="0.47pre4 r22446"
   sodipodi:docname="New document 1">
  <defs
     id="defs4">
    <inkscape:perspective
       sodipodi:type="inkscape:persp3d"
       inkscape:vp_x="0 : 526.18109 : 1"
       inkscape:vp_y="0 : 1000 : 0"
       inkscape:vp_z="744.09448 : 526.18109 : 1"
       inkscape:persp3d-origin="372.04724 : 350.78739 : 1"
       id="perspective10" />
    <inkscape:perspective
       id="perspective2824"
       inkscape:persp3d-origin="0.5 : 0.33333333 : 1"
       inkscape:vp_z="1 : 0.5 : 1"
       inkscape:vp_y="0 : 1000 : 0"
       inkscape:vp_x="0 : 0.5 : 1"
       sodipodi:type="inkscape:persp3d" />
  </defs>
  <sodipodi:namedview
     id="base"
     pagecolor="#ffffff"
     bordercolor="#666666"
     borderopacity="1.0"
     inkscape:pageopacity="0.0"
     inkscape:pageshadow="2"
     inkscape:zoom="0.35"
     inkscape:cx="388.32075"
     inkscape:cy="529.17563"
     inkscape:document-units="px"
     inkscape:current-layer="layer1"
     showgrid="false"
     inkscape:snap-page="false"
     inkscape:window-width="1057"
     inkscape:window-height="819"
     inkscape:window-x="293"
     inkscape:window-y="63"
     inkscape:window-maximized="0" />
  <metadata
     id="metadata7">
    <rdf:RDF>
      <cc:Work
         rdf:about="">
        <dc:format>image/svg+xml</dc:format>
        <dc:type
           rdf:resource="http://purl.org/dc/dcmitype/StillImage" />
        <dc:title></dc:title>
      </cc:Work>
    </rdf:RDF>
  </metadata>
  <g
     inkscape:label="Layer 1"
     inkscape:groupmode="layer"
     id="layer1"
     transform="translate(0,-52.362183)">
    <path
       style="fill:#000000"
       d="m 763.98473,903.16863 c -8.80108,-11.08871 -24.62632,-46.94732 -35.16721,-79.6858 -10.54088,-32.73849 -32.03105,-85.97521 -47.75593,-118.30384 l -28.5907,-58.77931 -159.99121,-7.03874 -159.99121,-7.03874 -36.58527,76.95548 c -71.19423,149.75386 -107.64839,197.92321 -149.78662,197.92321 -45.67918,0 -56.181173,-61.2599 -17.55127,-102.37955 18.14595,-19.31548 48.6055,-67.68993 67.68789,-107.49879 120.63901,-251.67192 291.34952,-504.77063 335.02618,-496.71639 26.50972,4.88855 118.07951,173.45836 173.55635,319.49796 15.16437,39.91935 55.84308,136.7864 90.39712,215.2601 49.30456,111.97277 58.78119,147.55258 44.0334,165.32258 -23.27408,28.04356 -54.18444,29.06259 -75.28152,2.48183 z M 580.54812,451.55573 c -18.55024,-46.57258 -37.35003,-93.70831 -41.77731,-104.74606 -4.42727,-11.03776 -14.10219,-16.32794 -21.49982,-11.75595 -14.86413,9.18653 -112.20187,174.9234 -112.20187,191.046 0,5.57338 47.07151,10.13343 104.60335,10.13343 l 104.60336,0 -33.72771,-84.67742 z"
       id="path2832" />
  </g>
</svg>
