<?xml version="1.0" encoding="UTF-8" standalone="no"?>
<!-- Created with Inkscape (http://www.inkscape.org/) -->

<svg
   xmlns:dc="http://purl.org/dc/elements/1.1/"
   xmlns:cc="http://creativecommons.org/ns#"
   xmlns:rdf="http://www.w3.org/1999/02/22-rdf-syntax-ns#"
   xmlns:svg="http://www.w3.org/2000/svg"
   xmlns="http://www.w3.org/2000/svg"
   xmlns:sodipodi="http://sodipodi.sourceforge.net/DTD/sodipodi-0.dtd"
   xmlns:inkscape="http://www.inkscape.org/namespaces/inkscape"
   width="1000"
   height="1000"
   id="svg2"
   version="1.1"
   inkscape:version="0.47pre4 r22446"
   sodipodi:docname="A.svg">
  <defs
     id="defs4">
    <inkscape:perspective
       sodipodi:type="inkscape:persp3d"
       inkscape:vp_x="0 : 526.18109 : 1"
       inkscape:vp_y="0 : 1000 : 0"
       inkscape:vp_z="744.09448 : 526.18109 : 1"
       inkscape:persp3d-origin="372.04724 : 350.78739 : 1"
       id="perspective10" />
    <inkscape:perspective
       id="perspective2824"
       inkscape:persp3d-origin="0.5 : 0.33333333 : 1"
       inkscape:vp_z="1 : 0.5 : 1"
       inkscape:vp_y="0 : 1000 : 0"
       inkscape:vp_x="0 : 0.5 : 1"
       sodipodi:type="inkscape:persp3d" />
    <inkscape:perspective
       id="perspective2863"
       inkscape:persp3d-origin="0.5 : 0.33333333 : 1"
       inkscape:vp_z="1 : 0.5 : 1"
       inkscape:vp_y="0 : 1000 : 0"
       inkscape:vp_x="0 : 0.5 : 1"
       sodipodi:type="inkscape:persp3d" />
  </defs>
  <sodipodi:namedview
     id="base"
     pagecolor="#ffffff"
     bordercolor="#666666"
     borderopacity="1.0"
     inkscape:pageopacity="0.0"
     inkscape:pageshadow="2"
     inkscape:zoom="0.24748737"
     inkscape:cx="537.80155"
     inkscape:cy="499.64607"
     inkscape:document-units="px"
     inkscape:current-layer="layer1"
     showgrid="false"
     inkscape:snap-page="false"
     inkscape:window-width="1057"
     inkscape:window-height="819"
     inkscape:window-x="559"
     inkscape:window-y="61"
     inkscape:window-maximized="0" />
  <metadata
     id="metadata7">
    <rdf:RDF>
      <cc:Work
         rdf:about="">
        <dc:format>image/svg+xml</dc:format>
        <dc:type
           rdf:resource="http://purl.org/dc/dcmitype/StillImage" />
        <dc:title></dc:title>
      </cc:Work>
    </rdf:RDF>
  </metadata>
  <g
     inkscape:label="Layer 1"
     inkscape:groupmode="layer"
     id="layer1"
     transform="translate(0,-52.362183)">
    <path
       style="fill:#000000"
       d="m 128.85281,893.20373 c -49.561649,-46.4344 -51.346702,-59.6158 -11.82231,-87.29977 24.63346,-17.25394 34.19614,-56.42496 54.76831,-224.344 13.70816,-111.89211 26.03416,-237.53111 27.39112,-279.19778 1.35697,-41.66666 7.30247,-83.48269 13.21226,-92.9245 11.80137,-18.85451 221.75078,-53.54014 324.07429,-53.54014 93.54645,0 229.66641,43.74098 273.96017,88.03473 34.63683,34.63684 37.4652,46.49935 29.59409,124.121 -7.27089,71.70241 -16.04606,91.53911 -53.33091,120.55716 l -44.62804,34.73309 28.61777,59.23197 c 50.63341,104.79907 37.22515,170.90694 -58.36291,287.75181 -3.31115,4.04749 -82.25415,8.91399 -175.42887,10.81446 -152.71802,3.11497 -248.36288,15.02112 -336.07528,41.83562 -20.55466,6.28376 -43.70703,-3.2943 -71.96969,-29.77365 z M 534.15583,793.10614 c 66.66666,0.88545 130.25184,-4.20984 141.30039,-11.32281 25.61502,-16.49075 38.95169,-123.8239 19.07193,-153.49048 -12.29253,-18.34415 -53.67557,-22.09324 -221.69861,-20.0848 -113.62171,1.35818 -208.69883,4.68936 -211.28251,7.40266 -2.58368,2.71331 -9.41669,48.41197 -15.18445,101.55258 l -10.48686,96.6193 88.53399,-11.14316 c 48.6937,-6.12875 143.07945,-10.41873 209.74612,-9.53329 z M 666.47511,466.93282 c 41.87263,-21.3803 87.37768,-90.71047 87.37768,-133.12609 0,-43.52727 -90.62192,-74.67171 -219.69696,-75.50424 -219.46498,-1.41552 -249.41372,9.9355 -251.06492,95.15734 -0.58571,30.22963 -6.46036,68.59932 -13.05477,85.26599 -26.02153,65.76665 -8.56064,71.62724 179.14169,60.12727 99.2264,-6.07932 193.9358,-19.99182 217.29728,-31.92027 z"
       id="path2869" />
  </g>
</svg>
