<?xml version="1.0" encoding="UTF-8" standalone="no"?>
<!-- Created with Inkscape (http://www.inkscape.org/) -->

<svg
   xmlns:dc="http://purl.org/dc/elements/1.1/"
   xmlns:cc="http://creativecommons.org/ns#"
   xmlns:rdf="http://www.w3.org/1999/02/22-rdf-syntax-ns#"
   xmlns:svg="http://www.w3.org/2000/svg"
   xmlns="http://www.w3.org/2000/svg"
   xmlns:sodipodi="http://sodipodi.sourceforge.net/DTD/sodipodi-0.dtd"
   xmlns:inkscape="http://www.inkscape.org/namespaces/inkscape"
   width="1000"
   height="1000"
   id="svg2"
   version="1.1"
   inkscape:version="0.47pre4 r22446"
   sodipodi:docname="a.svg">
  <defs
     id="defs4">
    <inkscape:perspective
       sodipodi:type="inkscape:persp3d"
       inkscape:vp_x="0 : 526.18109 : 1"
       inkscape:vp_y="0 : 1000 : 0"
       inkscape:vp_z="744.09448 : 526.18109 : 1"
       inkscape:persp3d-origin="372.04724 : 350.78739 : 1"
       id="perspective10" />
    <inkscape:perspective
       id="perspective2933"
       inkscape:persp3d-origin="0.5 : 0.33333333 : 1"
       inkscape:vp_z="1 : 0.5 : 1"
       inkscape:vp_y="0 : 1000 : 0"
       inkscape:vp_x="0 : 0.5 : 1"
       sodipodi:type="inkscape:persp3d" />
    <inkscape:perspective
       id="perspective2991"
       inkscape:persp3d-origin="0.5 : 0.33333333 : 1"
       inkscape:vp_z="1 : 0.5 : 1"
       inkscape:vp_y="0 : 1000 : 0"
       inkscape:vp_x="0 : 0.5 : 1"
       sodipodi:type="inkscape:persp3d" />
  </defs>
  <sodipodi:namedview
     id="base"
     pagecolor="#ffffff"
     bordercolor="#666666"
     borderopacity="1.0"
     inkscape:pageopacity="0.0"
     inkscape:pageshadow="2"
     inkscape:zoom="0.16"
     inkscape:cx="858.62646"
     inkscape:cy="660.08218"
     inkscape:document-units="px"
     inkscape:current-layer="layer1"
     showgrid="false"
     inkscape:window-width="533"
     inkscape:window-height="470"
     inkscape:window-x="600"
     inkscape:window-y="307"
     inkscape:window-maximized="0"
     inkscape:snap-page="true" />
  <metadata
     id="metadata7">
    <rdf:RDF>
      <cc:Work
         rdf:about="">
        <dc:format>image/svg+xml</dc:format>
        <dc:type
           rdf:resource="http://purl.org/dc/dcmitype/StillImage" />
        <dc:title></dc:title>
      </cc:Work>
    </rdf:RDF>
  </metadata>
  <g
     inkscape:label="Layer 1"
     inkscape:groupmode="layer"
     id="layer1"
     transform="translate(0,-52.362183)">
    <path
       style="fill:#000000"
       d="m 130.01057,855.38229 c -8.6525,-22.54806 -5.42508,-107.85153 20.0168,-529.06098 7.39282,-122.39373 21.89074,-153.95769 63.39944,-138.0293 14.40931,5.52937 20.94819,38.3937 20.94819,105.28539 l 0,97.24681 82.03125,0.93422 c 117.39783,1.33688 130.83539,4.97883 184.89695,50.11141 90.94983,75.92828 77.69074,272.50051 -21.85268,323.97642 -60.4118,31.24016 -118.14488,30.77183 -180.48219,-1.46406 -61.39644,-31.74933 -59.07842,-32.56331 -70.54549,24.77206 -16.75582,83.77913 -76.30043,123.85058 -98.41227,66.22805 z M 453.51173,652.9075 C 495.727,541.87293 441.77317,477.21301 316.01952,488.13264 c -10.9549,0.95125 -27.26297,21.04832 -36.24018,44.66015 -12.91118,33.95899 -10.62729,52.73449 10.92874,89.84375 34.32279,59.08758 50.26551,69.81369 104.2099,70.11138 32.27794,0.17812 47.24894,-10.0013 58.59375,-39.84042 z"
       id="path2997" />
  </g>
</svg>
