<?xml version="1.0" encoding="UTF-8" standalone="no"?>
<!-- Created with Inkscape (http://www.inkscape.org/) -->

<svg
   xmlns:dc="http://purl.org/dc/elements/1.1/"
   xmlns:cc="http://creativecommons.org/ns#"
   xmlns:rdf="http://www.w3.org/1999/02/22-rdf-syntax-ns#"
   xmlns:svg="http://www.w3.org/2000/svg"
   xmlns="http://www.w3.org/2000/svg"
   xmlns:sodipodi="http://sodipodi.sourceforge.net/DTD/sodipodi-0.dtd"
   xmlns:inkscape="http://www.inkscape.org/namespaces/inkscape"
   width="1000"
   height="1000"
   id="svg2"
   version="1.1"
   inkscape:version="0.47pre4 r22446"
   sodipodi:docname="D.svg">
  <defs
     id="defs4">
    <inkscape:perspective
       sodipodi:type="inkscape:persp3d"
       inkscape:vp_x="0 : 526.18109 : 1"
       inkscape:vp_y="0 : 1000 : 0"
       inkscape:vp_z="744.09448 : 526.18109 : 1"
       inkscape:persp3d-origin="372.04724 : 350.78739 : 1"
       id="perspective10" />
    <inkscape:perspective
       id="perspective2824"
       inkscape:persp3d-origin="0.5 : 0.33333333 : 1"
       inkscape:vp_z="1 : 0.5 : 1"
       inkscape:vp_y="0 : 1000 : 0"
       inkscape:vp_x="0 : 0.5 : 1"
       sodipodi:type="inkscape:persp3d" />
    <inkscape:perspective
       id="perspective2863"
       inkscape:persp3d-origin="0.5 : 0.33333333 : 1"
       inkscape:vp_z="1 : 0.5 : 1"
       inkscape:vp_y="0 : 1000 : 0"
       inkscape:vp_x="0 : 0.5 : 1"
       sodipodi:type="inkscape:persp3d" />
    <inkscape:perspective
       id="perspective2900"
       inkscape:persp3d-origin="0.5 : 0.33333333 : 1"
       inkscape:vp_z="1 : 0.5 : 1"
       inkscape:vp_y="0 : 1000 : 0"
       inkscape:vp_x="0 : 0.5 : 1"
       sodipodi:type="inkscape:persp3d" />
    <inkscape:perspective
       id="perspective2937"
       inkscape:persp3d-origin="0.5 : 0.33333333 : 1"
       inkscape:vp_z="1 : 0.5 : 1"
       inkscape:vp_y="0 : 1000 : 0"
       inkscape:vp_x="0 : 0.5 : 1"
       sodipodi:type="inkscape:persp3d" />
    <inkscape:perspective
       id="perspective2974"
       inkscape:persp3d-origin="0.5 : 0.33333333 : 1"
       inkscape:vp_z="1 : 0.5 : 1"
       inkscape:vp_y="0 : 1000 : 0"
       inkscape:vp_x="0 : 0.5 : 1"
       sodipodi:type="inkscape:persp3d" />
  </defs>
  <sodipodi:namedview
     id="base"
     pagecolor="#ffffff"
     bordercolor="#666666"
     borderopacity="1.0"
     inkscape:pageopacity="0.0"
     inkscape:pageshadow="2"
     inkscape:zoom="0.35"
     inkscape:cx="683.12994"
     inkscape:cy="523.92257"
     inkscape:document-units="px"
     inkscape:current-layer="layer1"
     showgrid="false"
     inkscape:snap-page="false"
     inkscape:window-width="1057"
     inkscape:window-height="819"
     inkscape:window-x="364"
     inkscape:window-y="74"
     inkscape:window-maximized="0" />
  <metadata
     id="metadata7">
    <rdf:RDF>
      <cc:Work
         rdf:about="">
        <dc:format>image/svg+xml</dc:format>
        <dc:type
           rdf:resource="http://purl.org/dc/dcmitype/StillImage" />
        <dc:title></dc:title>
      </cc:Work>
    </rdf:RDF>
  </metadata>
  <g
     inkscape:label="Layer 1"
     inkscape:groupmode="layer"
     id="layer1"
     transform="translate(0,-52.362183)">
    <path
       style="fill:#000000"
       d="m 139.91211,912.8591 c -28.73044,-36.52701 -34.51949,-105.37068 -19.13157,-227.51327 8.61162,-68.3553 17.3453,-199.28236 19.40818,-290.94902 l 3.75067,-166.66666 204.54546,3.21572 c 112.5,1.76864 274.43182,3.47319 359.84848,3.78788 l 155.30303,0.57215 0,38.77299 c 0,24.95873 6.09859,35.00385 17.11716,28.194 10.39796,-6.42631 14.34116,-2.31662 10.04531,10.46944 -5.77257,17.1813 -67.37531,20.684 -335.29897,19.06491 l -328.22713,-1.9835 0,88.21051 c 0,48.51579 7.45189,92.81604 16.55975,98.44501 9.10787,5.62899 73.2621,13.77203 142.56496,18.09568 116.58042,7.2732 126.50373,10.46912 132.67044,42.72821 10.6977,55.96135 -25.6388,79.85972 -99.63821,65.53166 -34.85299,-6.74838 -91.61782,-12.56673 -126.14408,-12.92966 l -62.775,-0.65986 -16.50491,93.69988 c -9.0777,51.53494 -13.79877,96.40601 -10.49129,99.71351 3.3075,3.30748 62.84709,4.19038 132.31023,1.96197 69.46312,-2.22841 204.20093,-4.48585 299.41733,-5.01655 l 173.12075,-0.96487 11.41225,42.55396 c 7.58472,28.28179 5.42008,44.37238 -6.45407,47.97579 -9.82649,2.982 -162.09603,9.18621 -338.37676,13.78712 -242.3202,6.32453 -324.05305,3.86132 -335.03201,-10.097 z"
       id="path2980" />
  </g>
</svg>
