<?xml version="1.0" encoding="UTF-8" standalone="no"?>
<!-- Created with Inkscape (http://www.inkscape.org/) -->

<svg
   xmlns:dc="http://purl.org/dc/elements/1.1/"
   xmlns:cc="http://creativecommons.org/ns#"
   xmlns:rdf="http://www.w3.org/1999/02/22-rdf-syntax-ns#"
   xmlns:svg="http://www.w3.org/2000/svg"
   xmlns="http://www.w3.org/2000/svg"
   xmlns:sodipodi="http://sodipodi.sourceforge.net/DTD/sodipodi-0.dtd"
   xmlns:inkscape="http://www.inkscape.org/namespaces/inkscape"
   width="1000"
   height="1000"
   id="svg2"
   version="1.1"
   inkscape:version="0.47pre4 r22446"
   sodipodi:docname="New document 1">
  <defs
     id="defs4">
    <inkscape:perspective
       sodipodi:type="inkscape:persp3d"
       inkscape:vp_x="0 : 526.18109 : 1"
       inkscape:vp_y="0 : 1000 : 0"
       inkscape:vp_z="744.09448 : 526.18109 : 1"
       inkscape:persp3d-origin="372.04724 : 350.78739 : 1"
       id="perspective10" />
    <inkscape:perspective
       id="perspective2824"
       inkscape:persp3d-origin="0.5 : 0.33333333 : 1"
       inkscape:vp_z="1 : 0.5 : 1"
       inkscape:vp_y="0 : 1000 : 0"
       inkscape:vp_x="0 : 0.5 : 1"
       sodipodi:type="inkscape:persp3d" />
  </defs>
  <sodipodi:namedview
     id="base"
     pagecolor="#ffffff"
     bordercolor="#666666"
     borderopacity="1.0"
     inkscape:pageopacity="0.0"
     inkscape:pageshadow="2"
     inkscape:zoom="0.35"
     inkscape:cx="375"
     inkscape:cy="520"
     inkscape:document-units="px"
     inkscape:current-layer="layer1"
     showgrid="false"
     inkscape:snap-page="true"
     inkscape:window-width="676"
     inkscape:window-height="668"
     inkscape:window-x="272"
     inkscape:window-y="15"
     inkscape:window-maximized="0" />
  <metadata
     id="metadata7">
    <rdf:RDF>
      <cc:Work
         rdf:about="">
        <dc:format>image/svg+xml</dc:format>
        <dc:type
           rdf:resource="http://purl.org/dc/dcmitype/StillImage" />
        <dc:title></dc:title>
      </cc:Work>
    </rdf:RDF>
  </metadata>
  <g
     inkscape:label="Layer 1"
     inkscape:groupmode="layer"
     id="layer1"
     transform="translate(0,-52.362183)">
    <path
       style="fill:#000000"
       d="m 430.42373,693.55856 c 5.22321,-65.15802 13.25941,-148.8625 17.85821,-186.00998 4.5988,-37.14747 8.69683,-71.23838 9.10674,-75.75758 0.40985,-4.51918 -0.0621,-40.36456 -1.04894,-79.65636 l -1.79429,-71.43965 -155.12534,-4.31792 c -137.89559,-3.83833 -155.73141,-7.48203 -160.58173,-32.80539 -3.00099,-15.66811 3.53502,-34.04444 14.52448,-40.8363 26.59555,-16.43695 690.82499,-18.06857 700.92788,-1.72176 4.33614,7.01601 4.242,26.68298 -0.20924,43.70436 -7.22829,27.64103 -20.50703,31.06377 -124.26912,32.03173 -63.89683,0.59606 -130.51374,1.48909 -148.03758,1.98448 -29.96841,0.84727 -32.4218,11.4787 -41.29116,178.93101 -16.07785,303.54684 -25.12852,338.16432 -91.38384,349.52972 -26.12522,4.4815 -27.48263,-3.77785 -18.67612,-113.63636 z"
       id="path2830" />
  </g>
</svg>
